<?xml version="1.0"?>
<svg xmlns="http://www.w3.org/2000/svg" xmlns:xlink="http://www.w3.org/1999/xlink" version="1.1" id="Layer_1" x="0px" y="0px" viewBox="0 0 500 500" style="enable-background:new 0 0 500 500;" xml:space="preserve">
<metadata><title>Flow Cytometry</title><description>Flow Cytometry Machine</description><license>Public Domain</license><creator>Ryan Kissinger</creator><creationDate>2024-08-28T14:25:42-06:00</creationDate><credit>Courtesy of NIAID</credit><illustrationSoftwares>[{&#39;name&#39;: &#39;Adobe Illustrator&#39;, &#39;version&#39;: &#39;28.6&#39;}]</illustrationSoftwares><caption>Flow Cytometry</caption><imageColor>Multicolor</imageColor><isDiscoverThumbnail>True</isDiscoverThumbnail></metadata>
<pattern width="48" height="48" patternUnits="userSpaceOnUse" id="_x36__dpi_60_x25_" viewBox="7.2 -55.2 48 48" style="overflow:visible;">
&#x9;<g>
&#x9;&#x9;<rect x="7.2" y="-55.2" class="st0" width="48" height="48"></rect>
&#x9;&#x9;<g>
&#x9;&#x9;&#x9;<path class="st1" d="M31.2,0c3.98,0,7.2-3.22,7.2-7.2c0-3.98-3.22-7.2-7.2-7.2c-3.98,0-7.2,3.22-7.2,7.2C24-3.22,27.22,0,31.2,0z     "></path>
&#x9;&#x9;&#x9;<path class="st1" d="M55.2,0c3.98,0,7.2-3.22,7.2-7.2c0-3.98-3.22-7.2-7.2-7.2c-3.98,0-7.2,3.22-7.2,7.2C48-3.22,51.22,0,55.2,0z     "></path>
&#x9;&#x9;&#x9;<path class="st1" d="M31.2-24c3.98,0,7.2-3.22,7.2-7.2c0-3.98-3.22-7.2-7.2-7.2c-3.98,0-7.2,3.22-7.2,7.2     C24-27.22,27.22-24,31.2-24z"></path>
&#x9;&#x9;&#x9;<path class="st1" d="M55.2-24c3.98,0,7.2-3.22,7.2-7.2c0-3.98-3.22-7.2-7.2-7.2c-3.98,0-7.2,3.22-7.2,7.2     C48-27.22,51.22-24,55.2-24z"></path>
&#x9;&#x9;&#x9;<path class="st1" d="M43.2-12c3.98,0,7.2-3.22,7.2-7.2c0-3.98-3.22-7.2-7.2-7.2c-3.98,0-7.2,3.22-7.2,7.2     C36-15.22,39.22-12,43.2-12z"></path>
&#x9;&#x9;&#x9;<path class="st1" d="M19.2-12c3.98,0,7.2-3.22,7.2-7.2c0-3.98-3.22-7.2-7.2-7.2c-3.98,0-7.2,3.22-7.2,7.2     C12-15.22,15.22-12,19.2-12z"></path>
&#x9;&#x9;&#x9;<path class="st1" d="M43.2-36c3.98,0,7.2-3.22,7.2-7.2c0-3.98-3.22-7.2-7.2-7.2c-3.98,0-7.2,3.22-7.2,7.2     C36-39.22,39.22-36,43.2-36z"></path>
&#x9;&#x9;&#x9;<path class="st1" d="M19.2-36c3.98,0,7.2-3.22,7.2-7.2c0-3.98-3.22-7.2-7.2-7.2c-3.98,0-7.2,3.22-7.2,7.2     C12-39.22,15.22-36,19.2-36z"></path>
&#x9;&#x9;</g>
&#x9;&#x9;<g>
&#x9;&#x9;&#x9;<path class="st1" d="M7.2,0c3.98,0,7.2-3.22,7.2-7.2c0-3.98-3.22-7.2-7.2-7.2C3.22-14.4,0-11.18,0-7.2C0-3.22,3.22,0,7.2,0z"></path>
&#x9;&#x9;&#x9;<path class="st1" d="M7.2-24c3.98,0,7.2-3.22,7.2-7.2c0-3.98-3.22-7.2-7.2-7.2c-3.98,0-7.2,3.22-7.2,7.2C0-27.22,3.22-24,7.2-24z     "></path>
&#x9;&#x9;</g>
&#x9;&#x9;<g>
&#x9;&#x9;&#x9;<path class="st1" d="M31.2-48c3.98,0,7.2-3.22,7.2-7.2c0-3.98-3.22-7.2-7.2-7.2c-3.98,0-7.2,3.22-7.2,7.2     C24-51.22,27.22-48,31.2-48z"></path>
&#x9;&#x9;&#x9;<path class="st1" d="M55.2-48c3.98,0,7.2-3.22,7.2-7.2c0-3.98-3.22-7.2-7.2-7.2c-3.98,0-7.2,3.22-7.2,7.2     C48-51.22,51.22-48,55.2-48z"></path>
&#x9;&#x9;</g>
&#x9;&#x9;<g>
&#x9;&#x9;&#x9;<path class="st1" d="M7.2-48c3.98,0,7.2-3.22,7.2-7.2c0-3.98-3.22-7.2-7.2-7.2c-3.98,0-7.2,3.22-7.2,7.2C0-51.22,3.22-48,7.2-48z     "></path>
&#x9;&#x9;</g>
&#x9;</g>
</pattern>
<g>
&#x9;<g>
&#x9;&#x9;<defs>
&#x9;&#x9;&#x9;<path id="XMLID_1047_" d="M69.36,110.53c-0.09,2.58,0.26,54.95,0.67,112.9c-6.88,9.28-5.44,20.92,0.2,28.57     c0.44,60.91,0.89,120.06,0.95,127.8c0,0.52,0.33,0.96,0.83,1.11c3.05,0.95,14.22,4.28,26.9,6.28     c13.96,2.2,115.96,21.47,128.81,23.89c0.69,0.13,1.33-0.4,1.33-1.1v-0.76l77.49,14.64l9.99-3.71c0.44-0.16,0.72-0.6,0.67-1.07     c-0.25-2.54,4.25-4.17,9.28-5.69l2.28,1.59c0.37,0.26,0.84,0.32,1.26,0.16l27.65-10.25l0.46,0.72l66.26-25.99     c0.32-0.13,0.54-0.43,0.54-0.78l6.39-281.99c0.03-1.12-0.77-2.09-1.88-2.29L318.94,75.48c-0.31-0.05-0.62-0.08-0.94-0.07     l-13.3,0.25c0,0-1.13-1.57-3.66-1.66S95.08,88.79,95.08,88.79s-3.69,0.16-5.07,3.17c-3.27,0-6.41-0.07-8.76,0.13     c-2.35,0.2-6.29,0.06-9.48,5.23C69.55,100.92,69.55,104.64,69.36,110.53z"></path>
&#x9;&#x9;</defs>
&#x9;&#x9;<use xlink:href="#XMLID_1047_" style="overflow:visible;fill:#E1E1E1;"></use>
&#x9;&#x9;<clipPath id="XMLID_00000163052731732558950590000009557158836277126824_">
&#x9;&#x9;&#x9;<use xlink:href="#XMLID_1047_" style="overflow:visible;"></use>
&#x9;&#x9;</clipPath>
&#x9;&#x9;<polygon style="clip-path:url(#XMLID_00000163052731732558950590000009557158836277126824_);fill:#949495;" points="    312.55,285.73 335.82,283.12 347.59,289.04 354.91,295.32 359.01,299.68 358.92,301.6 358.96,309.79 358.05,401.18 343.14,398.17     326.67,395.56 311.37,394.12   "></polygon>
&#x9;&#x9;<path style="clip-path:url(#XMLID_00000163052731732558950590000009557158836277126824_);fill:#C3C3C2;" d="M229.57,410.64    l0.61-129.96l6.67,0.48l7.54-2.83l15.17-2.79h9.76l17.78,3.57l8.89,3.92l7.32,4.71l8.19-0.7l7.84-1.48l-2.18,109.04    c0,0-16.6-2.31-23.58-1.79c-36.52,2.75-62.63,13.86-62.63,13.86L229.57,410.64z"></path>
&#x9;&#x9;<path style="clip-path:url(#XMLID_00000163052731732558950590000009557158836277126824_);fill:#CCCBCB;" d="M308.36,287.04    l0.07-18.83c0,0-4.05-8.96-3.92-13.27c0.13-4.31,0.33-12.49,0.33-12.49l3.75-8.63l1.22-118.72l0.04-25.67c0,0,0.26-8.11,2.27-9.85    c2-1.74,8.28-6.36,8.28-6.36l38.44-1.66l97.28,10.98l-9.07,33.82l-2.27,253.83l-16.39,19.35l-70.43,20.05l0.26-14.73l0.61-94.88    c0,0-3.14-4.92-8.02-8.32c-4.88-3.4-13.25-7.84-13.25-7.84l-4.62-0.7l-23.36,4.45L308.36,287.04z"></path>
&#x9;&#x9;
&#x9;&#x9;&#x9;<line style="clip-path:url(#XMLID_00000163052731732558950590000009557158836277126824_);fill:none;stroke:#BFBFBE;stroke-width:0.7845;stroke-miterlimit:10;" x1="140.4" y1="263.59" x2="231.22" y2="270.48"></line>
&#x9;&#x9;
&#x9;&#x9;&#x9;<path style="clip-path:url(#XMLID_00000163052731732558950590000009557158836277126824_);fill:#E3E3E3;stroke:#646464;stroke-width:0.7845;stroke-miterlimit:10;" d="    M357.53,411.16l-3.31,18.39l-12.12,7.84l-61.97,1.31l-49.16-23.8l-1.41-7.68c0,0,29.82-13.28,61.64-13.94    c26.54-0.55,59.84,6.51,66.18,7.91c0.7,0.15,0.55,5.8,0.55,5.8L357.53,411.16z"></path>
&#x9;&#x9;<polygon style="clip-path:url(#XMLID_00000163052731732558950590000009557158836277126824_);fill:#171718;" points="    229.96,406.67 306.27,420.27 306.27,427 231.05,422.32   "></polygon>
&#x9;&#x9;<g style="clip-path:url(#XMLID_00000163052731732558950590000009557158836277126824_);">
&#x9;&#x9;&#x9;<polygon class="st9" points="310.03,285.5 310.39,314.63 313.79,313.16 314.15,283.8    "></polygon>
&#x9;&#x9;&#x9;<path class="st10" d="M310.33,286.52l0.07,28.11l-17.52-1.96l-0.26-34.06c0,0,9.74,4.9,9.94,4.9     C302.74,283.51,310.33,286.52,310.33,286.52z"></path>
&#x9;&#x9;&#x9;<polygon class="st11" points="306.88,294.06 299.91,299.02 299.87,302.51 285.13,304.78 285.27,307 299.39,305.56 299.34,309.7      306.4,309.92    "></polygon>
&#x9;&#x9;&#x9;<path class="st12" d="M290.02,280.15l0.04,11.55l-0.7,0.07l0.04,6.43c0,0,0.61,1.18,2.27,1.09c1.66-0.09,2.18-1.31,2.18-1.31     l-0.02-6.08l-0.59-0.15l-0.09-10.63L290.02,280.15z"></path>
&#x9;&#x9;&#x9;<polygon class="st11" points="293.98,299.63 285.13,304.78 285.57,305.87 290.89,305.34 296.42,299.85    "></polygon>
&#x9;&#x9;</g>
&#x9;&#x9;<g style="opacity:0.76;clip-path:url(#XMLID_00000163052731732558950590000009557158836277126824_);">
&#x9;&#x9;&#x9;<defs>
&#x9;&#x9;&#x9;&#x9;<path id="SVGID_1_" class="st14" d="M238.63,408.33l0.31-128.02c0,0,15.82-5.62,24.52-4.71c8.69,0.92,21.05,2.88,21.05,2.88      l13.01,5.56l5.45,3.66l6.15-0.26l21.92-3.53c0,0,9.41,4.88,14.16,9.68c4.75,4.79,6.62,7.23,6.62,7.23l7.23,0.17l-0.83,101.11      l-51.78,18.48L238.63,408.33z"></path>
&#x9;&#x9;&#x9;</defs>
&#x9;&#x9;&#x9;<use xlink:href="#SVGID_1_" style="overflow:visible;fill:#38538E;"></use>
&#x9;&#x9;&#x9;<clipPath id="SVGID_00000135674244894958895710000014227970276981243526_">
&#x9;&#x9;&#x9;&#x9;<use xlink:href="#SVGID_1_" style="overflow:visible;"></use>
&#x9;&#x9;&#x9;</clipPath>
&#x9;&#x9;&#x9;<polygon style="clip-path:url(#SVGID_00000135674244894958895710000014227970276981243526_);fill:#5273AE;" points="     310.03,287.53 318.39,286.17 315.77,419.36 309.5,421.45 308.1,419.53    "></polygon>
&#x9;&#x9;&#x9;<polygon style="opacity:0.5;clip-path:url(#SVGID_00000135674244894958895710000014227970276981243526_);fill:#5273AE;" points="     316.7,284.52 369.03,279.11 366.42,412.3 316.17,418.44 314.77,416.52    "></polygon>
&#x9;&#x9;&#x9;<polygon style="clip-path:url(#SVGID_00000135674244894958895710000014227970276981243526_);fill:#7192C4;" points="     263.66,273.41 272.02,272.05 270.97,422.15 264.69,424.24 263.3,422.32    "></polygon>
&#x9;&#x9;</g>
&#x9;&#x9;<path style="opacity:0.14;clip-path:url(#XMLID_00000163052731732558950590000009557158836277126824_);fill:#DFDFDE;" d="    M238.81,359.39c0,0,40.53-12.07,72.17-8.67c31.64,3.4,47.33,7.45,47.33,7.45l0.26-24.84c0,0-37.66-7.58-60.14-7.06    c-22.49,0.52-59.62,8.11-59.62,8.11V359.39z"></path>
&#x9;&#x9;<path style="clip-path:url(#XMLID_00000163052731732558950590000009557158836277126824_);fill:#F2F1F2;" d="M65.52,223.84    l243.14,9.76c0,0-3.17,8.06-3.83,12.51s1,16.08,1,16.08l-10.42-1.57L58.5,250.43L65.52,223.84z"></path>
&#x9;&#x9;<path style="clip-path:url(#XMLID_00000163052731732558950590000009557158836277126824_);fill:#BFBFBE;" d="M65.17,251.47    l243.18,17c0,0-0.69-1.92-2.87-7.23c-6.15-0.13-249.25-13.9-249.25-13.9L65.17,251.47z"></path>
&#x9;&#x9;<path style="display:none;clip-path:url(#XMLID_00000163052731732558950590000009557158836277126824_);fill:#E1E1E3;" d="    M59.42,231.73l245.55,13.21c0,0-0.92,9.41-0.39,11.24c0.52,1.83-246.29-14.12-246.29-14.12L59.42,231.73z"></path>
&#x9;&#x9;<path style="clip-path:url(#XMLID_00000163052731732558950590000009557158836277126824_);fill:#3D3D3D;" d="M229.85,270.5    l78.45,5.69l-0.33,11.05l-3.6,0.39l-1.77-0.16c0,0-11.57-7.03-14.32-7.75c-2.75-0.72-18.83-3.66-18.83-3.66l-14.19,0.13    l-15.17,3.27l-3.27,1.7l-7.28-0.13L229.85,270.5z"></path>
&#x9;&#x9;<polygon style="clip-path:url(#XMLID_00000163052731732558950590000009557158836277126824_);fill:#2A2A2A;" points="    308.67,280.37 336,276.19 336.08,283.42 308.41,287.26   "></polygon>
&#x9;&#x9;
&#x9;&#x9;&#x9;<path style="clip-path:url(#XMLID_00000163052731732558950590000009557158836277126824_);fill:none;stroke:#646464;stroke-width:1.569;stroke-miterlimit:10;" d="    M326.15,74.7c-17.52-1.57-16.21,14.12-16.21,14.12s-1.23,139.99-1.27,144.78c-4.31,5.49-7.01,23.71-0.31,34.87    c0.01,4.36-0.17,19-0.17,19s23.58-4.36,27.24-4.1c3.66,0.26,20.53,10.46,23.4,16.61c0.26,6.54-0.52,108.52-0.52,108.52"></path>
&#x9;&#x9;
&#x9;&#x9;&#x9;<path style="clip-path:url(#XMLID_00000163052731732558950590000009557158836277126824_);fill:none;stroke:#646464;stroke-width:1.569;stroke-miterlimit:10;" d="    M307.81,287.63l-5.2-0.16c0,0-11.05-9.38-31.9-11.47s-33.41,4.84-33.41,4.84l-6.93,0.13l-0.63,132.3"></path>
&#x9;&#x9;<g style="clip-path:url(#XMLID_00000163052731732558950590000009557158836277126824_);">
&#x9;&#x9;&#x9;<defs>
&#x9;&#x9;&#x9;&#x9;<path id="XMLID_1051_" d="M73.61,225.85c-5.69,5.88-5.68,16.65-0.2,25.43l59.36,3.27c-4.58-7.26-4.18-19.74,0.52-26.74      L73.61,225.85z"></path>
&#x9;&#x9;&#x9;</defs>
&#x9;&#x9;&#x9;<use xlink:href="#XMLID_1051_" style="overflow:visible;fill:#BBBCBC;"></use>
&#x9;&#x9;&#x9;<clipPath id="XMLID_00000062909156769402313540000002449490914111062411_">
&#x9;&#x9;&#x9;&#x9;<use xlink:href="#XMLID_1051_" style="overflow:visible;"></use>
&#x9;&#x9;&#x9;</clipPath>
&#x9;&#x9;&#x9;<path style="clip-path:url(#XMLID_00000062909156769402313540000002449490914111062411_);fill:#1C2A57;" d="M74.85,223.95     l-0.26,28.11l60.14,4.64c0,0,3.46-2.29,3.46-2.88c0-0.59,1.57-29.48,1.57-29.48l-12.88-1.96c0,0-24.52-0.46-24.71-0.46     S74.85,223.95,74.85,223.95z"></path>
&#x9;&#x9;&#x9;<use xlink:href="#XMLID_1051_" style="overflow:visible;fill:none;stroke:#646464;stroke-width:0.7845;stroke-miterlimit:10;"></use>
&#x9;&#x9;</g>
&#x9;&#x9;<g style="clip-path:url(#XMLID_00000163052731732558950590000009557158836277126824_);">
&#x9;&#x9;&#x9;<defs>
&#x9;&#x9;&#x9;&#x9;<path id="XMLID_1050_" d="M90.01,101.55c0,0-0.78-8.63,9.68-12.55s15.56-7.89,15.56-7.89l173.83-8.83      c0,0-10.53,4.71-10.72,17.72C269.66,90.33,90.01,101.55,90.01,101.55z"></path>
&#x9;&#x9;&#x9;</defs>
&#x9;&#x9;&#x9;<use xlink:href="#XMLID_1050_" style="overflow:visible;fill:#E4E2DC;"></use>
&#x9;&#x9;&#x9;<clipPath id="XMLID_00000078758191592289095910000014037333937513831553_">
&#x9;&#x9;&#x9;&#x9;<use xlink:href="#XMLID_1050_" style="overflow:visible;"></use>
&#x9;&#x9;&#x9;</clipPath>
&#x9;&#x9;&#x9;
&#x9;&#x9;&#x9;&#x9;<path style="clip-path:url(#XMLID_00000078758191592289095910000014037333937513831553_);fill:#516FAF;stroke:#1B2D59;stroke-width:0.3922;stroke-miterlimit:10;" d="     M98.03,92.22l186.6-11.96l0.78,12.55l-3.66,5.36c0,0-134.91,21.16-135.96,21.16c-1.05,0-56.13-5.4-56.13-5.4l2.24-17.06     L98.03,92.22z"></path>
&#x9;&#x9;&#x9;
&#x9;&#x9;&#x9;&#x9;<path style="clip-path:url(#XMLID_00000078758191592289095910000014037333937513831553_);fill:#ADB0BC;stroke:#6C6F77;stroke-width:0.5884;stroke-miterlimit:10;" d="     M92.93,102.64c0,0-0.35-7.37,6.32-10.55c0.22-5.93-0.04-8.06-0.04-8.06s-10.02,5.88-10.11,6.1c-0.09,0.22-2.61,7.41-2.79,8.72     s0.17,7.1,0.17,7.1s3.66-1.09,4.27-1.09C91.37,104.86,92.93,102.64,92.93,102.64z"></path>
&#x9;&#x9;&#x9;<use xlink:href="#XMLID_1050_" style="overflow:visible;fill:none;stroke:#646464;stroke-width:0.7845;stroke-miterlimit:10;"></use>
&#x9;&#x9;</g>
&#x9;&#x9;
&#x9;&#x9;&#x9;<path style="clip-path:url(#XMLID_00000163052731732558950590000009557158836277126824_);fill:#ADB0BC;stroke:#92949D;stroke-width:0.5884;stroke-miterlimit:10;" d="    M288.62,91.5c0,0,1.05-15.89,17.26-16.15c5.19-5.01-2.88-7.1-2.88-7.1l-2.88,4.4l-4.05,1.87c-2.03,1.23-3.95,2.52-5.03,4.16    c-0.59,1.03-1.11,1.83-1.73,3.58c-0.38,1.68-0.67,3.03-0.69,4.53v3.14V91.5"></path>
&#x9;&#x9;
&#x9;&#x9;&#x9;<line style="clip-path:url(#XMLID_00000163052731732558950590000009557158836277126824_);fill:none;stroke:#ACABAC;stroke-width:0.7845;stroke-miterlimit:10;" x1="84" y1="217.35" x2="287.53" y2="224.54"></line>
&#x9;&#x9;
&#x9;&#x9;&#x9;<polygon style="clip-path:url(#XMLID_00000163052731732558950590000009557158836277126824_);fill:none;stroke:#ACABAC;stroke-width:0.7845;stroke-miterlimit:10;" points="    87.05,262.54 215.79,272.74 215.62,336.37 87.27,319.86   "></polygon>
&#x9;&#x9;
&#x9;&#x9;&#x9;<polygon style="clip-path:url(#XMLID_00000163052731732558950590000009557158836277126824_);fill:none;stroke:#ACABAC;stroke-width:0.7845;stroke-miterlimit:10;" points="    87.27,323.12 87.79,379.41 215.53,403.01 215.79,340.65   "></polygon>
&#x9;&#x9;
&#x9;&#x9;&#x9;<path style="clip-path:url(#XMLID_00000163052731732558950590000009557158836277126824_);fill:none;stroke:#A7A6A7;stroke-width:0.7845;stroke-miterlimit:10;" d="    M304.83,73.66c-17.52-1.57-16.21,14.12-16.21,14.12s-1.23,139.99-1.27,144.78c-4.31,5.49-7.01,23.71-0.31,34.87    c0,1.5-0.02,4.22-0.04,7.15"></path>
&#x9;&#x9;<polygon style="clip-path:url(#XMLID_00000163052731732558950590000009557158836277126824_);fill:#1B427A;" points="    133.99,301.77 133.99,311.58 162.58,314.71 162.58,304.08   "></polygon>
&#x9;&#x9;<polygon style="clip-path:url(#XMLID_00000163052731732558950590000009557158836277126824_);fill:#1B427A;" points="    133.59,374.38 133.59,364.51 162.68,368.76 162.55,379.25   "></polygon>
&#x9;&#x9;<polygon style="clip-path:url(#XMLID_00000163052731732558950590000009557158836277126824_);fill:#1B427A;" points="161.5,190.64     161.5,201.23 191.87,201.3 192,190.81   "></polygon>
&#x9;&#x9;<g style="clip-path:url(#XMLID_00000163052731732558950590000009557158836277126824_);">
&#x9;&#x9;&#x9;<path class="st32" d="M283.26,150.9c-0.22,7.28-11,7.33-11.24,0C272.26,143.56,283.04,143.62,283.26,150.9L283.26,150.9z      M283.26,150.9c-0.23-6.81-10.25-6.76-10.46,0C273.01,157.66,283.03,157.71,283.26,150.9L283.26,150.9z"></path>
&#x9;&#x9;</g>
&#x9;&#x9;
&#x9;&#x9;&#x9;<ellipse style="clip-path:url(#XMLID_00000163052731732558950590000009557158836277126824_);fill:#30302E;" cx="277.83" cy="150.9" rx="3.79" ry="3.72"></ellipse>
&#x9;&#x9;<g style="clip-path:url(#XMLID_00000163052731732558950590000009557158836277126824_);">
&#x9;&#x9;&#x9;<path class="st32" d="M95.24,154.59c-0.2,6.48-9.79,6.52-10.01,0C85.44,148.06,95.04,148.11,95.24,154.59L95.24,154.59z      M95.24,154.59c-0.2-6.06-9.12-6.02-9.31,0C86.11,160.61,95.04,160.65,95.24,154.59L95.24,154.59z"></path>
&#x9;&#x9;</g>
&#x9;&#x9;
&#x9;&#x9;&#x9;<ellipse style="clip-path:url(#XMLID_00000163052731732558950590000009557158836277126824_);fill:#30302E;" cx="90.41" cy="154.59" rx="3.37" ry="3.31"></ellipse>
&#x9;&#x9;
&#x9;&#x9;&#x9;<polyline style="clip-path:url(#XMLID_00000163052731732558950590000009557158836277126824_);fill:none;stroke:#959494;stroke-width:0.7845;stroke-miterlimit:10;" points="    343.37,229.21 367.72,180.09 369.55,77.06   "></polyline>
&#x9;&#x9;
&#x9;&#x9;&#x9;<polygon style="clip-path:url(#XMLID_00000163052731732558950590000009557158836277126824_);fill:none;stroke:#8E8D8D;stroke-width:0.7845;stroke-miterlimit:10;" points="    407.91,292.18 370.99,300.05 370.34,389.28 406.25,375.51   "></polygon>
&#x9;&#x9;
&#x9;&#x9;&#x9;<pattern id="SVGID_00000038388273282642225870000017614889330764467646_" xlink:href="#_x36__dpi_60_x25_" patternTransform="matrix(0.0392 0 0 0.0392 -8011.8242 -7879.6797)">
&#x9;&#x9;</pattern>
&#x9;&#x9;
&#x9;&#x9;&#x9;<path style="clip-path:url(#XMLID_00000163052731732558950590000009557158836277126824_);fill:url(#SVGID_00000038388273282642225870000017614889330764467646_);" d="    M372.98,378.3l0.69-67.96c0.01-0.51,0.36-0.95,0.86-1.07l29.57-6.84c0.79-0.18,1.53,0.44,1.52,1.24l-1.51,63.97    c-0.02,0.67-0.45,1.27-1.08,1.49l-28.7,10.13C373.65,379.49,372.97,379,372.98,378.3z"></path>
&#x9;&#x9;<g style="clip-path:url(#XMLID_00000163052731732558950590000009557158836277126824_);">
&#x9;&#x9;&#x9;<defs>
&#x9;&#x9;&#x9;&#x9;<polygon id="XMLID_1049_" points="386.64,200.57 386.12,235.35 408.26,233.61 408.78,200.13     "></polygon>
&#x9;&#x9;&#x9;</defs>
&#x9;&#x9;&#x9;<clipPath id="XMLID_00000126295904665785261540000009554922875717378207_">
&#x9;&#x9;&#x9;&#x9;<use xlink:href="#XMLID_1049_" style="overflow:visible;"></use>
&#x9;&#x9;&#x9;</clipPath>
&#x9;&#x9;&#x9;<polygon style="clip-path:url(#XMLID_00000126295904665785261540000009554922875717378207_);fill:#CECECD;" points="     385.18,196.23 383.81,239.18 393.61,241.34 402.63,237.94 405.64,236.7 405.84,194.6 401.26,193.23    "></polygon>
&#x9;&#x9;&#x9;<polygon style="clip-path:url(#XMLID_00000126295904665785261540000009554922875717378207_);fill:#B9B9B9;" points="     403.75,197.93 402.96,238.6 410.22,238.53 416.69,228.99 415.84,198.91 412.11,190.74    "></polygon>
&#x9;&#x9;&#x9;<use xlink:href="#XMLID_1049_" style="overflow:visible;fill:none;stroke:#8B8A8B;stroke-width:0.7845;stroke-miterlimit:10;"></use>
&#x9;&#x9;</g>
&#x9;&#x9;<g style="clip-path:url(#XMLID_00000163052731732558950590000009557158836277126824_);">
&#x9;&#x9;&#x9;<defs>
&#x9;&#x9;&#x9;&#x9;<path id="XMLID_1048_" d="M316.21,231.73l-0.26,36.68c0,0,28.37,3.01,40.21-0.52c0.39-10.13,1.24-34.39,1.24-34.39      s-3.79-3.12-12.07-3.99C337.04,228.64,316.21,231.73,316.21,231.73z"></path>
&#x9;&#x9;&#x9;</defs>
&#x9;&#x9;&#x9;<use xlink:href="#XMLID_1048_" style="overflow:visible;fill:#DFDFDE;"></use>
&#x9;&#x9;&#x9;<clipPath id="XMLID_00000076567057732407511810000013059578922372625306_">
&#x9;&#x9;&#x9;&#x9;<use xlink:href="#XMLID_1048_" style="overflow:visible;"></use>
&#x9;&#x9;&#x9;</clipPath>
&#x9;&#x9;&#x9;<path style="clip-path:url(#XMLID_00000076567057732407511810000013059578922372625306_);fill:#CAC9C9;" d="M314.64,231.34     c0,0,21.18,2.42,30.99,2.22c9.81-0.2,15.76-0.26,15.76-0.26l0.13-3.14c0,0-15.56-11.51-16.08-11.51s-10.26,2.75-10.26,2.75     l-9.41,1.44l-4.31,0.33l-4.31,1.7L314.64,231.34z"></path>
&#x9;&#x9;&#x9;<path style="clip-path:url(#XMLID_00000076567057732407511810000013059578922372625306_);fill:#A7A6A7;" d="M319.26,271.78     l0.26-45.15l-5.14,0.61c0,0-1.92,6.97-1.92,11.16s2,35.13,2,35.13L319.26,271.78z"></path>
&#x9;&#x9;&#x9;<use xlink:href="#XMLID_1048_" style="overflow:visible;fill:none;stroke:#858584;stroke-width:0.7845;stroke-miterlimit:10;"></use>
&#x9;&#x9;</g>
&#x9;&#x9;<path style="clip-path:url(#XMLID_00000163052731732558950590000009557158836277126824_);fill:#474847;" d="M306.26,420.34    l52.23-18.68l-0.48,9.72c0,0-12.6,9.11-13.82,9.68c-1.22,0.57-38.05,5.98-38.05,5.98L306.26,420.34z"></path>
&#x9;&#x9;
&#x9;&#x9;&#x9;<ellipse style="clip-path:url(#XMLID_00000163052731732558950590000009557158836277126824_);fill:#282626;" cx="147.63" cy="276.19" rx="4.45" ry="5.27"></ellipse>
&#x9;&#x9;
&#x9;&#x9;&#x9;<ellipse style="clip-path:url(#XMLID_00000163052731732558950590000009557158836277126824_);fill:#282626;" cx="147.8" cy="340.12" rx="4.45" ry="5.27"></ellipse>
&#x9;</g>
&#x9;<g id="XMLID_1045_">
&#x9;&#x9;<path class="st43" d="M301.02,74c0.01,0,0.02,0,0.03,0c2.53,0.09,3.66,1.66,3.66,1.66l13.3-0.25c0.03,0,0.06,0,0.09,0    c0.28,0,0.56,0.02,0.84,0.07l110.49,19.11c1.11,0.19,1.9,1.16,1.88,2.29l-6.39,281.99c-0.01,0.35-0.22,0.65-0.54,0.78    l-66.26,25.99l-0.46-0.72l-27.65,10.25c-0.15,0.06-0.31,0.09-0.47,0.09c-0.28,0-0.55-0.08-0.78-0.25l-2.28-1.59    c-5.03,1.52-9.53,3.14-9.28,5.69c0.05,0.47-0.23,0.9-0.67,1.07l-9.99,3.71l-77.49-14.64v0.76c0,0.63-0.51,1.12-1.12,1.12    c-0.07,0-0.14-0.01-0.21-0.02c-12.85-2.43-114.85-21.69-128.81-23.89c-12.68-2-23.85-5.33-26.9-6.28    c-0.49-0.15-0.82-0.6-0.83-1.11c-0.06-7.74-0.51-66.89-0.95-127.8c-5.64-7.65-7.08-19.29-0.2-28.57    c-0.41-57.95-0.75-110.32-0.67-112.9c0.2-5.88,0.2-9.61,2.42-13.21c3.19-5.17,7.13-5.03,9.48-5.23c1.41-0.12,3.11-0.14,4.94-0.14    c1.22,0,2.51,0.01,3.82,0.01c1.37-3.01,5.07-3.17,5.07-3.17S297.35,74,301.02,74 M301.02,71.99    C301.02,71.99,301.02,71.99,301.02,71.99L301.02,71.99c-3.72,0-197.61,14.17-206.07,14.79c-0.47,0.03-4.04,0.34-6.08,3.16    c-0.27,0-0.55,0-0.82,0c-0.63,0-1.25-0.01-1.85-0.01c-1.73,0-3.55,0.02-5.11,0.15c-0.17,0.01-0.35,0.03-0.53,0.04    c-2.45,0.17-7,0.48-10.49,6.14c-2.39,3.86-2.51,7.81-2.69,13.27l-0.03,0.93c-0.07,2.22,0.15,40.01,0.66,112.33    c-7.19,10.22-5.15,22.18,0.21,29.87c0.44,60.68,0.89,119.45,0.95,127.16c0.01,1.39,0.91,2.61,2.24,3.02    c3.15,0.98,14.41,4.33,27.18,6.34c13.97,2.21,117.04,21.67,128.75,23.88c0.19,0.04,0.39,0.05,0.58,0.05c1.15,0,2.15-0.62,2.7-1.55    l75.54,14.27l0.55,0.1l0.52-0.19l9.99-3.71c1.3-0.48,2.11-1.78,1.97-3.15c0.1-0.45,1.15-1.46,6.93-3.28l1.48,1.03    c0.57,0.4,1.24,0.61,1.93,0.61c0.4,0,0.8-0.07,1.17-0.21l26.12-9.69l0.47,0.75l1.54-0.61l66.26-25.99    c1.08-0.42,1.79-1.45,1.82-2.61l6.39-281.99c0.05-2.14-1.44-3.95-3.55-4.32L319.28,73.5c-0.39-0.07-0.79-0.1-1.19-0.1l-0.13,0    l-12.44,0.24c-0.82-0.7-2.26-1.57-4.41-1.64l-0.03,0L301.02,71.99L301.02,71.99L301.02,71.99z"></path>
&#x9;</g>
</g>
</svg>