<?xml version="1.0"?>
<svg xmlns:ns0="http://www.w3.org/2000/svg" version="1.1" viewBox="0 0 500 500">
  <metadata><title>TCell</title><description>Round circular T cell illustration</description><license>Public Domain</license><creator>Ryan Kissinger</creator><creationDate>2024-09-26T12:22:04-04:00</creationDate><credit>Courtesy of NIAID</credit><illustrationSoftwares>[{&#39;name&#39;: &#39;Adobe Illustrator&#39;, &#39;version&#39;: &#39;28.7&#39;}]</illustrationSoftwares><caption>TCell - Yellow</caption><imageColor>Yellow</imageColor></metadata><defs>
    
  </defs>
  
  <g class="cls-2">
    <g id="Layer_1">
      <g>
        <g>
          <circle class="cls-5" cx="260.01" cy="250.02" r="153.84"></circle>
          <path class="cls-1" d="M260.01,408.36c-87.31,0-158.34-71.03-158.34-158.34s71.03-158.34,158.34-158.34,158.34,71.03,158.34,158.34-71.03,158.34-158.34,158.34ZM260.01,100.68c-82.35,0-149.34,66.99-149.34,149.34s66.99,149.34,149.34,149.34,149.34-66.99,149.34-149.34-66.99-149.34-149.34-149.34Z"></path>
        </g>
        <circle class="cls-6" cx="256.08" cy="251.04" r="114.9"></circle>
      </g>
    </g>
    <g id="Layer_1_copy" class="cls-4">
      <path class="cls-3" d="M260.01,91.68c-87.31,0-158.34,71.03-158.34,158.34s71.03,158.34,158.34,158.34,158.34-71.03,158.34-158.34-71.03-158.34-158.34-158.34Z"></path>
    </g>
  </g>
  </svg>